<svg width="22" height="22" viewBox="0 0 22 22" fill="none" xmlns="http://www.w3.org/2000/svg">
<path d="M8.53091 11L17.1944 2.33669C17.3413 2.18976 17.4148 2.02067 17.4148 1.82965C17.4148 1.63863 17.3413 1.46954 17.1944 1.32292L16.0921 0.22059C15.9451 0.0737359 15.776 0 15.5855 0C15.3944 0 15.2254 0.0737359 15.0784 0.22059L4.80565 10.4929C4.65872 10.6398 4.58545 10.8089 4.58545 10.9999C4.58545 11.191 4.65872 11.36 4.80565 11.507L15.0779 21.7793C15.2251 21.9264 15.3942 21.9998 15.5853 21.9998C15.776 21.9998 15.9451 21.9264 16.092 21.7793L17.1943 20.6777C17.3412 20.5308 17.4145 20.3616 17.4145 20.1704C17.4145 19.9796 17.3413 19.8105 17.1943 19.6636L8.53091 11Z" fill="#DDDDDD"/>
</svg>
